<svg xmlns="http://www.w3.org/2000/svg" viewBox="0 0 360 220"><defs><pattern id="cloth" width="5" height="5" patternUnits="userSpaceOnUse"><rect width="5" height="5" fill="#b59a6d"/><path d="M0 0h5M0 0v5" stroke="#564730" stroke-width="2"/></pattern><radialGradient id="glow"><stop stop-color="#cdb582" stop-opacity=".18"/><stop offset="1" stop-color="#cdb582" stop-opacity="0"/></radialGradient></defs><rect width="360" height="220" fill="#382c20"/><rect width="360" height="220" fill="url(#glow)"/><path d="M16 16h328v188H16z" fill="none" stroke="#b9a273" stroke-opacity=".3"/><path d="M113 29h139v166H113q-17 0-17-17V46q0-17 17-17" fill="#243f32" stroke="#c8a567" stroke-width="3"/><path d="M114 29v166m13-148h107v130H127z" fill="none" stroke="#c8a567"/><path d="M145 64q39 49 68 0m-68 95q39-49 68 0" stroke="#c8a567" fill="none"/><circle cx="180" cy="110" r="28" fill="none" stroke="#c8a567"/><path d="M180 86v48m0-30q-22-30-27-5 4 18 27 13m0-8q22-30 27-5-4 18-27 13" stroke="#c8a567" fill="none"/><g fill="none" stroke="#92a576" stroke-width="2"><path d="M19 198Q65 136 34 43M34 119q-30-38-16-56 25 8 21 37m-11 45q39-40 36-69-27 8-30 46M331 191q-34-68 6-137m-17 90q-23-35-38-33 0 26 35 49m18-68q24-36 9-45-17 15-15 29"/></g></svg>